<?xml version="1.0" encoding="UTF-8"?>
<svg width="40px" height="40px" viewBox="0 0 40 40" version="1.1" xmlns="http://www.w3.org/2000/svg" xmlns:xlink="http://www.w3.org/1999/xlink">
  <!-- Generator: Sketch 45.1 (43504) - http://www.bohemiancoding.com/sketch -->
  <title>Artboard</title>
  <desc>Created with Sketch.</desc>
  <defs></defs>
  <g id="Symbols" stroke="none" stroke-width="1" fill="none" fill-rule="evenodd">
    <g id="Artboard"></g>
    <g id="Group-3">
      <path d="M13.8343664,0 L25.8463939,0 C29.8300115,0 31.8213243,0 33.9657387,0.683333333 C36.3069036,1.54233333 38.1507363,3.401 39.0028806,5.761 C39.6807602,7.92233333 39.6807602,9.93033333 39.6807602,13.9456667 L39.6807602,26.0543333 C39.6807602,30.07 39.6807602,32.0773333 39.0028806,34.239 C38.1507363,36.599 36.3069036,38.4576667 33.9657387,39.3163333 C31.8213243,40 29.8300115,40 25.8463939,40 L13.8343664,40 C9.85074873,40 7.85910524,40 5.71502149,39.3163333 C3.37385664,38.4576667 1.53002398,36.599 0.677879654,34.239 C0,32.0773333 0,30.07 0,26.0543333 L0,13.9456667 C0,9.93033333 0,7.92233333 0.677879654,5.761 C1.53002398,3.401 3.37385664,1.54233333 5.71502149,0.683333333 C7.85910524,0 9.85074873,0 13.8343664,0 L13.8343664,0" id="logo-copy-2" fill="#00929E"></path>
      <path d="M29.972955,10.7052498 C29.5997695,10.2087287 29.1332877,10.0101202 28.5735095,10.0101202 L24.2818766,10.0101202 C24.0952839,9.61290323 23.6288021,9.31499051 23.1623202,9.31499051 C22.4159493,9.31499051 21.8561711,9.91081594 21.8561711,10.7052498 C21.8561711,11.4996837 22.4159493,12.0955092 23.1623202,12.0955092 C23.5355057,12.0955092 23.9086912,11.8969007 24.1885803,11.598988 L28.6668058,11.598988 C28.7601022,11.598988 28.8533986,11.6982922 28.8533986,11.6982922 C28.8533986,11.6982922 28.9466949,11.7975965 28.9466949,11.8969007 L25.0282475,29.6723593 C25.0282475,29.7716635 24.9349512,29.8709677 24.7483584,29.8709677 L20.3634292,29.8709677 L19.0572801,29.8709677 L14.6723509,29.8709677 C14.5790545,29.8709677 14.3924618,29.7716635 14.3924618,29.6723593 L10.4740144,11.8969007 C10.4740144,11.7975965 10.4740144,11.6982922 10.5673107,11.598988 C10.5673107,11.598988 10.6606071,11.4996837 10.7539035,11.4996837 L14.7656472,11.4996837 C15.0455363,11.7975965 15.3254254,11.9962049 15.7919073,11.9962049 C16.5382782,11.9962049 17.0980564,11.4003795 17.0980564,10.6059456 C17.0980564,9.8115117 16.5382782,9.21568627 15.7919073,9.21568627 C15.3254254,9.21568627 14.95224,9.51359899 14.6723509,9.91081594 L10.7539035,9.91081594 C10.1941253,9.91081594 9.72764345,10.2087287 9.35445798,10.6059456 C8.98127252,11.1024668 8.88797615,11.598988 8.98127252,12.1948134 L12.8997199,29.970272 C13.0863126,30.8640101 13.8326836,31.4598355 14.5790545,31.4598355 L18.8706874,31.4598355 L18.8706874,40 L20.550022,40 L20.550022,31.4598355 L24.8416548,31.4598355 C25.6813221,31.4598355 26.3343967,30.8640101 26.5209894,29.970272 L30.4394368,12.1948134 C30.4394368,11.7975965 30.3461404,11.201771 29.972955,10.7052498 L29.972955,10.7052498 Z" id="XMLID_134_-Copy" fill="#FFFFFF"></path>
    </g>
  </g>
</svg>
